<svg width="120" height="120" viewBox="0 0 120 120" xmlns="http://www.w3.org/2000/svg">
  <!-- Background -->
  <rect width="120" height="120" fill="#FFFFFF" rx="12"/>
  
  <!-- JSON Left Brace { -->
  <path d="M 20 30 Q 15 30 15 35 L 15 45 Q 15 50 10 52 Q 15 54 15 59 L 15 69 Q 15 74 20 74" 
        stroke="#0175C2" stroke-width="5" fill="none" stroke-linecap="round" stroke-linejoin="round"/>
  
  <!-- Dart Logo Style in center -->
  <g transform="translate(40, 32)">
    <!-- Main body -->
    <path d="M 0 20 L 20 0 L 40 0 L 40 20 L 20 40 Z" fill="#0175C2"/>
    <!-- Right fold -->
    <path d="M 40 0 L 40 20 L 20 20 L 40 0 Z" fill="#01579B" opacity="0.8"/>
    <!-- Bottom fold -->
    <path d="M 20 40 L 40 20 L 20 20 L 20 40 Z" fill="#40C4FF" opacity="0.6"/>
    <!-- Highlight -->
    <circle cx="13" cy="27" r="5" fill="#FFFFFF" opacity="0.9"/>
  </g>
  
  <!-- JSON Right Brace } -->
  <path d="M 100 30 Q 105 30 105 35 L 105 45 Q 105 50 110 52 Q 105 54 105 59 L 105 69 Q 105 74 100 74" 
        stroke="#0175C2" stroke-width="5" fill="none" stroke-linecap="round" stroke-linejoin="round"/>
  
  <!-- JET text -->
  <text x="60" y="100" font-family="Arial, sans-serif" font-size="18" font-weight="bold" 
        text-anchor="middle" fill="#0175C2">JET</text>
</svg>

